<svg height="5598" width="720" xmlns="http://www.w3.org/2000/svg">
<rect height="5598" fill="#555" width="720"></rect>
<text fill="#7f7" font-family="Courier New" font-size="12" xml:space="preserve">
<tspan x="10" y="26">36 megabytes installed</tspan>
<tspan x="10" y="42"></tspan>
<tspan x="10" y="58">node_modules</tspan>
<tspan x="10" y="74">└─┬ generator-node@2.1.0 </tspan>
<tspan x="10" y="90">  ├─┬ chalk@1.1.3 </tspan>
<tspan x="10" y="106">  │ ├── ansi-styles@2.2.1 </tspan>
<tspan x="10" y="122">  │ ├── escape-string-regexp@1.0.5 </tspan>
<tspan x="10" y="138">  │ ├─┬ has-ansi@2.0.0 </tspan>
<tspan x="10" y="154">  │ │ └── ansi-regex@2.1.1 </tspan>
<tspan x="10" y="170">  │ ├── strip-ansi@3.0.1 </tspan>
<tspan x="10" y="186">  │ └── supports-color@2.0.0 </tspan>
<tspan x="10" y="202">  ├─┬ generator-jest@1.2.0 </tspan>
<tspan x="10" y="218">  │ ├── deep-extend@0.4.1 </tspan>
<tspan x="10" y="234">  │ ├── lodash.camelcase@4.3.0 </tspan>
<tspan x="10" y="250">  │ └── lodash.upperfirst@4.3.1 </tspan>
<tspan x="10" y="266">  ├─┬ generator-license@5.1.0 </tspan>
<tspan x="10" y="282">  │ └─┬ git-config@0.0.7 </tspan>
<tspan x="10" y="298">  │   └── iniparser@1.0.5 </tspan>
<tspan x="10" y="314">  ├─┬ generator-travis@1.5.0 </tspan>
<tspan x="10" y="330">  │ ├── merge-and-concat@1.0.2 </tspan>
<tspan x="10" y="346">  │ ├── ramda@0.22.1 </tspan>
<tspan x="10" y="362">  │ ├─┬ sort-object@3.0.2 </tspan>
<tspan x="10" y="378">  │ │ ├─┬ bytewise@1.1.0 </tspan>
<tspan x="10" y="394">  │ │ │ ├─┬ bytewise-core@1.2.3 </tspan>
<tspan x="10" y="410">  │ │ │ │ └── typewise-core@1.2.0 </tspan>
<tspan x="10" y="426">  │ │ │ └── typewise@1.0.3 </tspan>
<tspan x="10" y="442">  │ │ ├── get-value@2.0.6 </tspan>
<tspan x="10" y="458">  │ │ ├── is-extendable@0.1.1 </tspan>
<tspan x="10" y="474">  │ │ ├── sort-asc@0.2.0 </tspan>
<tspan x="10" y="490">  │ │ ├── sort-desc@0.2.0 </tspan>
<tspan x="10" y="506">  │ │ └─┬ union-value@0.2.4 </tspan>
<tspan x="10" y="522">  │ │   ├── arr-union@3.1.0 </tspan>
<tspan x="10" y="538">  │ │   └─┬ set-value@0.4.3 </tspan>
<tspan x="10" y="554">  │ │     ├── extend-shallow@2.0.1 </tspan>
<tspan x="10" y="570">  │ │     ├─┬ is-plain-object@2.0.1 </tspan>
<tspan x="10" y="586">  │ │     │ └── isobject@1.0.2 </tspan>
<tspan x="10" y="602">  │ │     └─┬ to-object-path@0.3.0 </tspan>
<tspan x="10" y="618">  │ │       └─┬ kind-of@3.1.0 </tspan>
<tspan x="10" y="634">  │ │         └── is-buffer@1.1.5 </tspan>
<tspan x="10" y="650">  │ ├── travis-config-keys@1.0.3 </tspan>
<tspan x="10" y="666">  │ ├─┬ yamljs@0.2.10 </tspan>
<tspan x="10" y="682">  │ │ └── argparse@1.0.9 </tspan>
<tspan x="10" y="698">  │ └─┬ yeoman-generator@0.24.1 </tspan>
<tspan x="10" y="714">  │   ├── cross-spawn@4.0.2 </tspan>
<tspan x="10" y="730">  │   ├─┬ dargs@4.1.0 </tspan>
<tspan x="10" y="746">  │   │ └── number-is-nan@1.0.1 </tspan>
<tspan x="10" y="762">  │   ├─┬ dateformat@1.0.12 </tspan>
<tspan x="10" y="778">  │   │ ├── get-stdin@4.0.1 </tspan>
<tspan x="10" y="794">  │   │ └─┬ meow@3.7.0 </tspan>
<tspan x="10" y="810">  │   │   ├─┬ camelcase-keys@2.1.0 </tspan>
<tspan x="10" y="826">  │   │   │ └── camelcase@2.1.1 </tspan>
<tspan x="10" y="842">  │   │   ├── decamelize@1.2.0 </tspan>
<tspan x="10" y="858">  │   │   ├─┬ loud-rejection@1.6.0 </tspan>
<tspan x="10" y="874">  │   │   │ ├─┬ currently-unhandled@0.4.1 </tspan>
<tspan x="10" y="890">  │   │   │ │ └── array-find-index@1.0.2 </tspan>
<tspan x="10" y="906">  │   │   │ └── signal-exit@3.0.2 </tspan>
<tspan x="10" y="922">  │   │   ├── map-obj@1.0.1 </tspan>
<tspan x="10" y="938">  │   │   ├── object-assign@4.1.1 </tspan>
<tspan x="10" y="954">  │   │   ├─┬ read-pkg-up@1.0.1 </tspan>
<tspan x="10" y="970">  │   │   │ ├─┬ find-up@1.1.2 </tspan>
<tspan x="10" y="986">  │   │   │ │ └── path-exists@2.1.0 </tspan>
<tspan x="10" y="1002">  │   │   │ └─┬ read-pkg@1.1.0 </tspan>
<tspan x="10" y="1018">  │   │   │   ├─┬ load-json-file@1.1.0 </tspan>
<tspan x="10" y="1034">  │   │   │   │ └── strip-bom@2.0.0 </tspan>
<tspan x="10" y="1050">  │   │   │   └── path-type@1.1.0 </tspan>
<tspan x="10" y="1066">  │   │   ├─┬ redent@1.0.0 </tspan>
<tspan x="10" y="1082">  │   │   │ ├─┬ indent-string@2.1.0 </tspan>
<tspan x="10" y="1098">  │   │   │ │ └─┬ repeating@2.0.1 </tspan>
<tspan x="10" y="1114">  │   │   │ │   └── is-finite@1.0.2 </tspan>
<tspan x="10" y="1130">  │   │   │ └── strip-indent@1.0.1 </tspan>
<tspan x="10" y="1146">  │   │   └── trim-newlines@1.0.0 </tspan>
<tspan x="10" y="1162">  │   ├─┬ find-up@1.1.2 </tspan>
<tspan x="10" y="1178">  │   │ └─┬ pinkie-promise@2.0.1 </tspan>
<tspan x="10" y="1194">  │   │   └── pinkie@2.0.4 </tspan>
<tspan x="10" y="1210">  │   ├─┬ github-username@2.1.0 </tspan>
<tspan x="10" y="1226">  │   │ └─┬ gh-got@2.4.0 </tspan>
<tspan x="10" y="1242">  │   │   ├─┬ got@5.7.1 </tspan>
<tspan x="10" y="1258">  │   │   │ ├── duplexer2@0.1.4 </tspan>
<tspan x="10" y="1274">  │   │   │ ├── node-status-codes@1.0.0 </tspan>
<tspan x="10" y="1290">  │   │   │ ├── read-all-stream@3.1.0 </tspan>
<tspan x="10" y="1306">  │   │   │ ├── timed-out@3.1.3 </tspan>
<tspan x="10" y="1322">  │   │   │ └── unzip-response@1.0.2 </tspan>
<tspan x="10" y="1338">  │   │   └── object-assign@4.1.1 </tspan>
<tspan x="10" y="1354">  │   ├─┬ gruntfile-editor@1.2.1 </tspan>
<tspan x="10" y="1370">  │   │ └─┬ ast-query@2.0.0 </tspan>
<tspan x="10" y="1386">  │   │   ├─┬ acorn-jsx@3.0.1 </tspan>
<tspan x="10" y="1402">  │   │   │ └── acorn@3.3.0 </tspan>
<tspan x="10" y="1418">  │   │   ├─┬ escodegen-wallaby@1.6.11 </tspan>
<tspan x="10" y="1434">  │   │   │ ├── esprima@2.7.3 </tspan>
<tspan x="10" y="1450">  │   │   │ ├── estraverse@1.9.3 </tspan>
<tspan x="10" y="1466">  │   │   │ ├── esutils@2.0.2 </tspan>
<tspan x="10" y="1482">  │   │   │ ├─┬ optionator@0.8.2 </tspan>
<tspan x="10" y="1498">  │   │   │ │ ├── deep-is@0.1.3 </tspan>
<tspan x="10" y="1514">  │   │   │ │ ├── fast-levenshtein@2.0.6 </tspan>
<tspan x="10" y="1530">  │   │   │ │ ├── levn@0.3.0 </tspan>
<tspan x="10" y="1546">  │   │   │ │ ├── prelude-ls@1.1.2 </tspan>
<tspan x="10" y="1562">  │   │   │ │ ├── type-check@0.3.2 </tspan>
<tspan x="10" y="1578">  │   │   │ │ └── wordwrap@1.0.0 </tspan>
<tspan x="10" y="1594">  │   │   │ └─┬ source-map@0.2.0 </tspan>
<tspan x="10" y="1610">  │   │   │   └── amdefine@1.0.1 </tspan>
<tspan x="10" y="1626">  │   │   └── traverse@0.6.6 </tspan>
<tspan x="10" y="1642">  │   ├─┬ html-wiring@1.2.0 </tspan>
<tspan x="10" y="1658">  │   │ ├─┬ cheerio@0.19.0 </tspan>
<tspan x="10" y="1674">  │   │ │ ├─┬ css-select@1.0.0 </tspan>
<tspan x="10" y="1690">  │   │ │ │ ├── boolbase@1.0.0 </tspan>
<tspan x="10" y="1706">  │   │ │ │ ├── css-what@1.0.0 </tspan>
<tspan x="10" y="1722">  │   │ │ │ ├── domutils@1.4.3 </tspan>
<tspan x="10" y="1738">  │   │ │ │ └── nth-check@1.0.1 </tspan>
<tspan x="10" y="1754">  │   │ │ ├─┬ dom-serializer@0.1.0 </tspan>
<tspan x="10" y="1770">  │   │ │ │ └── domelementtype@1.1.3 </tspan>
<tspan x="10" y="1786">  │   │ │ ├── entities@1.1.1 </tspan>
<tspan x="10" y="1802">  │   │ │ ├─┬ htmlparser2@3.8.3 </tspan>
<tspan x="10" y="1818">  │   │ │ │ ├── domelementtype@1.3.0 </tspan>
<tspan x="10" y="1834">  │   │ │ │ ├── domhandler@2.3.0 </tspan>
<tspan x="10" y="1850">  │   │ │ │ ├── domutils@1.5.1 </tspan>
<tspan x="10" y="1866">  │   │ │ │ ├── entities@1.0.0 </tspan>
<tspan x="10" y="1882">  │   │ │ │ └─┬ readable-stream@1.1.14 </tspan>
<tspan x="10" y="1898">  │   │ │ │   ├── isarray@0.0.1 </tspan>
<tspan x="10" y="1914">  │   │ │ │   └── string_decoder@0.10.31 </tspan>
<tspan x="10" y="1930">  │   │ │ └── lodash@3.10.1 </tspan>
<tspan x="10" y="1946">  │   │ └── detect-newline@1.0.3 </tspan>
<tspan x="10" y="1962">  │   ├─┬ mem-fs-editor@2.3.0 </tspan>
<tspan x="10" y="1978">  │   │ ├─┬ globby@4.1.0 </tspan>
<tspan x="10" y="1994">  │   │ │ └── glob@6.0.4 </tspan>
<tspan x="10" y="2010">  │   │ └─┬ vinyl@1.2.0 </tspan>
<tspan x="10" y="2026">  │   │   ├── clone-stats@0.0.1 </tspan>
<tspan x="10" y="2042">  │   │   └── replace-ext@0.0.1 </tspan>
<tspan x="10" y="2058">  │   ├─┬ nopt@3.0.6 </tspan>
<tspan x="10" y="2074">  │   │ └── abbrev@1.1.0 </tspan>
<tspan x="10" y="2090">  │   ├── path-exists@2.1.0 </tspan>
<tspan x="10" y="2106">  │   ├── pretty-bytes@3.0.1 </tspan>
<tspan x="10" y="2122">  │   ├── read-chunk@1.0.1 </tspan>
<tspan x="10" y="2138">  │   ├─┬ read-pkg-up@1.0.1 </tspan>
<tspan x="10" y="2154">  │   │ └─┬ read-pkg@1.1.0 </tspan>
<tspan x="10" y="2170">  │   │   ├─┬ load-json-file@1.1.0 </tspan>
<tspan x="10" y="2186">  │   │   │ └── strip-bom@2.0.0 </tspan>
<tspan x="10" y="2202">  │   │   └── path-type@1.1.0 </tspan>
<tspan x="10" y="2218">  │   ├─┬ underscore.string@3.3.4 </tspan>
<tspan x="10" y="2234">  │   │ ├── sprintf-js@1.0.3 </tspan>
<tspan x="10" y="2250">  │   │ └── util-deprecate@1.0.2 </tspan>
<tspan x="10" y="2266">  │   ├── yeoman-assert@2.2.3 </tspan>
<tspan x="10" y="2282">  │   ├─┬ yeoman-test@1.6.0 </tspan>
<tspan x="10" y="2298">  │   │ ├─┬ sinon@1.17.7 </tspan>
<tspan x="10" y="2314">  │   │ │ ├── formatio@1.1.1 </tspan>
<tspan x="10" y="2330">  │   │ │ ├── lolex@1.3.2 </tspan>
<tspan x="10" y="2346">  │   │ │ ├── samsam@1.1.2 </tspan>
<tspan x="10" y="2362">  │   │ │ └─┬ util@0.10.3 </tspan>
<tspan x="10" y="2378">  │   │ │   └── inherits@2.0.1 </tspan>
<tspan x="10" y="2394">  │   │ └─┬ yeoman-generator@0.24.1 </tspan>
<tspan x="10" y="2410">  │   │   ├── cross-spawn@4.0.2 </tspan>
<tspan x="10" y="2426">  │   │   ├── dargs@4.1.0 </tspan>
<tspan x="10" y="2442">  │   │   ├── dateformat@1.0.12 </tspan>
<tspan x="10" y="2458">  │   │   ├── find-up@1.1.2 </tspan>
<tspan x="10" y="2474">  │   │   ├─┬ github-username@2.1.0 </tspan>
<tspan x="10" y="2490">  │   │   │ └─┬ gh-got@2.4.0 </tspan>
<tspan x="10" y="2506">  │   │   │   ├─┬ got@5.7.1 </tspan>
<tspan x="10" y="2522">  │   │   │   │ ├── timed-out@3.1.3 </tspan>
<tspan x="10" y="2538">  │   │   │   │ └── unzip-response@1.0.2 </tspan>
<tspan x="10" y="2554">  │   │   │   └── object-assign@4.1.1 </tspan>
<tspan x="10" y="2570">  │   │   ├─┬ mem-fs-editor@2.3.0 </tspan>
<tspan x="10" y="2586">  │   │   │ ├─┬ globby@4.1.0 </tspan>
<tspan x="10" y="2602">  │   │   │ │ └── glob@6.0.4 </tspan>
<tspan x="10" y="2618">  │   │   │ └─┬ vinyl@1.2.0 </tspan>
<tspan x="10" y="2634">  │   │   │   ├── clone-stats@0.0.1 </tspan>
<tspan x="10" y="2650">  │   │   │   └── replace-ext@0.0.1 </tspan>
<tspan x="10" y="2666">  │   │   ├── path-exists@2.1.0 </tspan>
<tspan x="10" y="2682">  │   │   ├── pretty-bytes@3.0.1 </tspan>
<tspan x="10" y="2698">  │   │   ├── read-chunk@1.0.1 </tspan>
<tspan x="10" y="2714">  │   │   └─┬ read-pkg-up@1.0.1 </tspan>
<tspan x="10" y="2730">  │   │     └─┬ read-pkg@1.1.0 </tspan>
<tspan x="10" y="2746">  │   │       ├─┬ load-json-file@1.1.0 </tspan>
<tspan x="10" y="2762">  │   │       │ └── strip-bom@2.0.0 </tspan>
<tspan x="10" y="2778">  │   │       └── path-type@1.1.0 </tspan>
<tspan x="10" y="2794">  │   └── yeoman-welcome@1.0.1 </tspan>
<tspan x="10" y="2810">  ├─┬ git-remote-origin-url@2.0.0 </tspan>
<tspan x="10" y="2826">  │ ├─┬ gitconfiglocal@1.0.0 </tspan>
<tspan x="10" y="2842">  │ │ └── ini@1.3.4 </tspan>
<tspan x="10" y="2858">  │ └── pify@2.3.0 </tspan>
<tspan x="10" y="2874">  ├─┬ github-username@3.0.0 </tspan>
<tspan x="10" y="2890">  │ └─┬ gh-got@5.0.0 </tspan>
<tspan x="10" y="2906">  │   ├─┬ got@6.7.1 </tspan>
<tspan x="10" y="2922">  │   │ ├─┬ create-error-class@3.0.2 </tspan>
<tspan x="10" y="2938">  │   │ │ └── capture-stack-trace@1.0.0 </tspan>
<tspan x="10" y="2954">  │   │ ├── duplexer3@0.1.4 </tspan>
<tspan x="10" y="2970">  │   │ ├── get-stream@3.0.0 </tspan>
<tspan x="10" y="2986">  │   │ ├── is-redirect@1.0.0 </tspan>
<tspan x="10" y="3002">  │   │ ├── is-retry-allowed@1.1.0 </tspan>
<tspan x="10" y="3018">  │   │ ├── is-stream@1.1.0 </tspan>
<tspan x="10" y="3034">  │   │ ├── lowercase-keys@1.0.0 </tspan>
<tspan x="10" y="3050">  │   │ ├── safe-buffer@5.0.1 </tspan>
<tspan x="10" y="3066">  │   │ ├── timed-out@4.0.1 </tspan>
<tspan x="10" y="3082">  │   │ ├── unzip-response@2.0.1 </tspan>
<tspan x="10" y="3098">  │   │ └─┬ url-parse-lax@1.0.0 </tspan>
<tspan x="10" y="3114">  │   │   └── prepend-http@1.0.4 </tspan>
<tspan x="10" y="3130">  │   └── is-plain-obj@1.1.0 </tspan>
<tspan x="10" y="3146">  ├─┬ inquirer-npm-name@2.0.0 </tspan>
<tspan x="10" y="3162">  │ └─┬ npm-name@3.0.0 </tspan>
<tspan x="10" y="3178">  │   ├── lodash.zip@4.2.0 </tspan>
<tspan x="10" y="3194">  │   └─┬ registry-url@3.1.0 </tspan>
<tspan x="10" y="3210">  │     └─┬ rc@1.2.1 </tspan>
<tspan x="10" y="3226">  │       └── strip-json-comments@2.0.1 </tspan>
<tspan x="10" y="3242">  ├── lodash@4.17.4 </tspan>
<tspan x="10" y="3258">  ├─┬ parse-author@2.0.0 </tspan>
<tspan x="10" y="3274">  │ └── author-regex@1.0.0 </tspan>
<tspan x="10" y="3290">  └─┬ yeoman-generator@1.1.1 </tspan>
<tspan x="10" y="3306">    ├── async@2.3.0 </tspan>
<tspan x="10" y="3322">    ├─┬ class-extend@0.1.2 </tspan>
<tspan x="10" y="3338">    │ └── object-assign@2.1.1 </tspan>
<tspan x="10" y="3354">    ├─┬ cli-table@0.3.1 </tspan>
<tspan x="10" y="3370">    │ └── colors@1.0.3 </tspan>
<tspan x="10" y="3386">    ├─┬ cross-spawn@5.1.0 </tspan>
<tspan x="10" y="3402">    │ ├─┬ lru-cache@4.0.2 </tspan>
<tspan x="10" y="3418">    │ │ ├── pseudomap@1.0.2 </tspan>
<tspan x="10" y="3434">    │ │ └── yallist@2.1.2 </tspan>
<tspan x="10" y="3450">    │ ├─┬ shebang-command@1.2.0 </tspan>
<tspan x="10" y="3466">    │ │ └── shebang-regex@1.0.0 </tspan>
<tspan x="10" y="3482">    │ └─┬ which@1.2.14 </tspan>
<tspan x="10" y="3498">    │   └── isexe@2.0.0 </tspan>
<tspan x="10" y="3514">    ├── dargs@5.1.0 </tspan>
<tspan x="10" y="3530">    ├── dateformat@2.0.0 </tspan>
<tspan x="10" y="3546">    ├─┬ debug@2.6.3 </tspan>
<tspan x="10" y="3562">    │ └── ms@0.7.2 </tspan>
<tspan x="10" y="3578">    ├── detect-conflict@1.0.1 </tspan>
<tspan x="10" y="3594">    ├─┬ error@7.0.2 </tspan>
<tspan x="10" y="3610">    │ ├── string-template@0.2.1 </tspan>
<tspan x="10" y="3626">    │ └── xtend@4.0.1 </tspan>
<tspan x="10" y="3642">    ├─┬ find-up@2.1.0 </tspan>
<tspan x="10" y="3658">    │ └─┬ locate-path@2.0.0 </tspan>
<tspan x="10" y="3674">    │   └─┬ p-locate@2.0.0 </tspan>
<tspan x="10" y="3690">    │     └── p-limit@1.1.0 </tspan>
<tspan x="10" y="3706">    ├─┬ glob@7.1.1 </tspan>
<tspan x="10" y="3722">    │ ├── fs.realpath@1.0.0 </tspan>
<tspan x="10" y="3738">    │ ├─┬ inflight@1.0.6 </tspan>
<tspan x="10" y="3754">    │ │ └── wrappy@1.0.2 </tspan>
<tspan x="10" y="3770">    │ ├── inherits@2.0.3 </tspan>
<tspan x="10" y="3786">    │ ├─┬ minimatch@3.0.3 </tspan>
<tspan x="10" y="3802">    │ │ └─┬ brace-expansion@1.1.7 </tspan>
<tspan x="10" y="3818">    │ │   ├── balanced-match@0.4.2 </tspan>
<tspan x="10" y="3834">    │ │   └── concat-map@0.0.1 </tspan>
<tspan x="10" y="3850">    │ └── once@1.4.0 </tspan>
<tspan x="10" y="3866">    ├─┬ istextorbinary@2.1.0 </tspan>
<tspan x="10" y="3882">    │ ├── binaryextensions@2.0.0 </tspan>
<tspan x="10" y="3898">    │ ├── editions@1.3.3 </tspan>
<tspan x="10" y="3914">    │ └── textextensions@2.0.1 </tspan>
<tspan x="10" y="3930">    ├─┬ mem-fs-editor@3.0.2 </tspan>
<tspan x="10" y="3946">    │ ├── commondir@1.0.1 </tspan>
<tspan x="10" y="3962">    │ ├── ejs@2.5.6 </tspan>
<tspan x="10" y="3978">    │ ├─┬ globby@6.1.0 </tspan>
<tspan x="10" y="3994">    │ │ ├─┬ array-union@1.0.2 </tspan>
<tspan x="10" y="4010">    │ │ │ └── array-uniq@1.0.3 </tspan>
<tspan x="10" y="4026">    │ │ └── object-assign@4.1.1 </tspan>
<tspan x="10" y="4042">    │ ├─┬ multimatch@2.1.0 </tspan>
<tspan x="10" y="4058">    │ │ ├── array-differ@1.0.0 </tspan>
<tspan x="10" y="4074">    │ │ └── arrify@1.0.1 </tspan>
<tspan x="10" y="4090">    │ └─┬ vinyl@2.0.2 </tspan>
<tspan x="10" y="4106">    │   ├── clone@1.0.2 </tspan>
<tspan x="10" y="4122">    │   ├── clone-buffer@1.0.0 </tspan>
<tspan x="10" y="4138">    │   ├── clone-stats@1.0.0 </tspan>
<tspan x="10" y="4154">    │   ├── cloneable-readable@1.0.0 </tspan>
<tspan x="10" y="4170">    │   ├── remove-trailing-separator@1.0.1 </tspan>
<tspan x="10" y="4186">    │   └── replace-ext@1.0.0 </tspan>
<tspan x="10" y="4202">    ├── minimist@1.2.0 </tspan>
<tspan x="10" y="4218">    ├─┬ mkdirp@0.5.1 </tspan>
<tspan x="10" y="4234">    │ └── minimist@0.0.8 </tspan>
<tspan x="10" y="4250">    ├── path-exists@3.0.0 </tspan>
<tspan x="10" y="4266">    ├── path-is-absolute@1.0.1 </tspan>
<tspan x="10" y="4282">    ├── pretty-bytes@4.0.2 </tspan>
<tspan x="10" y="4298">    ├── read-chunk@2.0.0 </tspan>
<tspan x="10" y="4314">    ├─┬ read-pkg-up@2.0.0 </tspan>
<tspan x="10" y="4330">    │ └─┬ read-pkg@2.0.0 </tspan>
<tspan x="10" y="4346">    │   ├─┬ load-json-file@2.0.0 </tspan>
<tspan x="10" y="4362">    │   │ ├── graceful-fs@4.1.11 </tspan>
<tspan x="10" y="4378">    │   │ ├─┬ parse-json@2.2.0 </tspan>
<tspan x="10" y="4394">    │   │ │ └─┬ error-ex@1.3.1 </tspan>
<tspan x="10" y="4410">    │   │ │   └── is-arrayish@0.2.1 </tspan>
<tspan x="10" y="4426">    │   │ └── strip-bom@3.0.0 </tspan>
<tspan x="10" y="4442">    │   ├─┬ normalize-package-data@2.3.6 </tspan>
<tspan x="10" y="4458">    │   │ ├── hosted-git-info@2.4.2 </tspan>
<tspan x="10" y="4474">    │   │ ├─┬ is-builtin-module@1.0.0 </tspan>
<tspan x="10" y="4490">    │   │ │ └── builtin-modules@1.1.1 </tspan>
<tspan x="10" y="4506">    │   │ ├── semver@5.3.0 </tspan>
<tspan x="10" y="4522">    │   │ └─┬ validate-npm-package-license@3.0.1 </tspan>
<tspan x="10" y="4538">    │   │   ├─┬ spdx-correct@1.0.2 </tspan>
<tspan x="10" y="4554">    │   │   │ └── spdx-license-ids@1.2.2 </tspan>
<tspan x="10" y="4570">    │   │   └── spdx-expression-parse@1.0.4 </tspan>
<tspan x="10" y="4586">    │   └── path-type@2.0.0 </tspan>
<tspan x="10" y="4602">    ├── rimraf@2.6.1 </tspan>
<tspan x="10" y="4618">    ├─┬ run-async@2.3.0 </tspan>
<tspan x="10" y="4634">    │ └── is-promise@2.1.0 </tspan>
<tspan x="10" y="4650">    ├─┬ shelljs@0.7.7 </tspan>
<tspan x="10" y="4666">    │ ├── interpret@1.0.3 </tspan>
<tspan x="10" y="4682">    │ └─┬ rechoir@0.6.2 </tspan>
<tspan x="10" y="4698">    │   └─┬ resolve@1.3.3 </tspan>
<tspan x="10" y="4714">    │     └── path-parse@1.0.5 </tspan>
<tspan x="10" y="4730">    ├── text-table@0.2.0 </tspan>
<tspan x="10" y="4746">    ├─┬ through2@2.0.3 </tspan>
<tspan x="10" y="4762">    │ └─┬ readable-stream@2.2.9 </tspan>
<tspan x="10" y="4778">    │   ├── buffer-shims@1.0.0 </tspan>
<tspan x="10" y="4794">    │   ├── core-util-is@1.0.2 </tspan>
<tspan x="10" y="4810">    │   ├── isarray@1.0.0 </tspan>
<tspan x="10" y="4826">    │   ├── process-nextick-args@1.0.7 </tspan>
<tspan x="10" y="4842">    │   └── string_decoder@1.0.0 </tspan>
<tspan x="10" y="4858">    ├─┬ user-home@2.0.0 </tspan>
<tspan x="10" y="4874">    │ └── os-homedir@1.0.2 </tspan>
<tspan x="10" y="4890">    └─┬ yeoman-environment@1.6.6 </tspan>
<tspan x="10" y="4906">      ├── diff@2.2.3 </tspan>
<tspan x="10" y="4922">      ├─┬ globby@4.1.0 </tspan>
<tspan x="10" y="4938">      │ ├── glob@6.0.4 </tspan>
<tspan x="10" y="4954">      │ └── object-assign@4.1.1 </tspan>
<tspan x="10" y="4970">      ├── grouped-queue@0.3.3 </tspan>
<tspan x="10" y="4986">      ├─┬ inquirer@1.2.3 </tspan>
<tspan x="10" y="5002">      │ ├── ansi-escapes@1.4.0 </tspan>
<tspan x="10" y="5018">      │ ├─┬ cli-cursor@1.0.2 </tspan>
<tspan x="10" y="5034">      │ │ └─┬ restore-cursor@1.0.1 </tspan>
<tspan x="10" y="5050">      │ │   ├── exit-hook@1.1.1 </tspan>
<tspan x="10" y="5066">      │ │   └── onetime@1.1.0 </tspan>
<tspan x="10" y="5082">      │ ├── cli-width@2.1.0 </tspan>
<tspan x="10" y="5098">      │ ├─┬ external-editor@1.1.1 </tspan>
<tspan x="10" y="5114">      │ │ ├── extend@3.0.0 </tspan>
<tspan x="10" y="5130">      │ │ ├─┬ spawn-sync@1.0.15 </tspan>
<tspan x="10" y="5146">      │ │ │ ├─┬ concat-stream@1.6.0 </tspan>
<tspan x="10" y="5162">      │ │ │ │ └── typedarray@0.0.6 </tspan>
<tspan x="10" y="5178">      │ │ │ └── os-shim@0.1.3 </tspan>
<tspan x="10" y="5194">      │ │ └─┬ tmp@0.0.29 </tspan>
<tspan x="10" y="5210">      │ │   └── os-tmpdir@1.0.2 </tspan>
<tspan x="10" y="5226">      │ ├─┬ figures@1.7.0 </tspan>
<tspan x="10" y="5242">      │ │ └── object-assign@4.1.1 </tspan>
<tspan x="10" y="5258">      │ ├── mute-stream@0.0.6 </tspan>
<tspan x="10" y="5274">      │ ├── rx@4.1.0 </tspan>
<tspan x="10" y="5290">      │ ├─┬ string-width@1.0.2 </tspan>
<tspan x="10" y="5306">      │ │ ├── code-point-at@1.1.0 </tspan>
<tspan x="10" y="5322">      │ │ └── is-fullwidth-code-point@1.0.0 </tspan>
<tspan x="10" y="5338">      │ └── through@2.3.8 </tspan>
<tspan x="10" y="5354">      ├── log-symbols@1.0.2 </tspan>
<tspan x="10" y="5370">      ├─┬ mem-fs@1.1.3 </tspan>
<tspan x="10" y="5386">      │ ├─┬ vinyl@1.2.0 </tspan>
<tspan x="10" y="5402">      │ │ ├── clone-stats@0.0.1 </tspan>
<tspan x="10" y="5418">      │ │ └── replace-ext@0.0.1 </tspan>
<tspan x="10" y="5434">      │ └─┬ vinyl-file@2.0.0 </tspan>
<tspan x="10" y="5450">      │   ├─┬ strip-bom@2.0.0 </tspan>
<tspan x="10" y="5466">      │   │ └── is-utf8@0.2.1 </tspan>
<tspan x="10" y="5482">      │   ├─┬ strip-bom-stream@2.0.0 </tspan>
<tspan x="10" y="5498">      │   │ ├── first-chunk-stream@2.0.0 </tspan>
<tspan x="10" y="5514">      │   │ └── strip-bom@2.0.0 </tspan>
<tspan x="10" y="5530">      │   └─┬ vinyl@1.2.0 </tspan>
<tspan x="10" y="5546">      │     ├── clone-stats@0.0.1 </tspan>
<tspan x="10" y="5562">      │     └── replace-ext@0.0.1 </tspan>
<tspan x="10" y="5578">      └── untildify@2.1.0</tspan>
</text>
</svg>
